<svg width="24" height="24" viewBox="0 0 24 24" fill="none" xmlns="http://www.w3.org/2000/svg">
  <circle cx="12" cy="12" r="11.25" fill="white" stroke="#00B5CB" stroke-width="1.5"/>
  <path fill-rule="evenodd" clip-rule="evenodd" d="M12 18C12.4142 18 12.75 17.6642 12.75 17.25V6.75C12.75 6.33579 12.4142 6 12 6C11.5858 6 11.25 6.33579 11.25 6.75V17.25C11.25 17.6642 11.5858 18 12 18Z" fill="#00B5CB"/>
  <path fill-rule="evenodd" clip-rule="evenodd" d="M11.4697 17.7803C11.7626 18.0732 12.2374 18.0732 12.5303 17.7803L17.7803 12.5303C18.0732 12.2374 18.0732 11.7626 17.7803 11.4697C17.4874 11.1768 17.0126 11.1768 16.7197 11.4697L12 16.1893L7.28033 11.4697C6.98744 11.1768 6.51256 11.1768 6.21967 11.4697C5.92678 11.7626 5.92678 12.2374 6.21967 12.5303L11.4697 17.7803Z" fill="#00B5CB"/>
</svg>
