<svg width="24" height="24" viewBox="0 0 24 24" fill="none" xmlns="http://www.w3.org/2000/svg">
<circle cx="12" cy="12" r="11.25" fill="white" stroke="#EB5757" stroke-width="1.5"/>
<path fill-rule="evenodd" clip-rule="evenodd" d="M12 6C12.4142 6 12.75 6.33579 12.75 6.75V17.25C12.75 17.6642 12.4142 18 12 18C11.5858 18 11.25 17.6642 11.25 17.25V6.75C11.25 6.33579 11.5858 6 12 6Z" fill="#EB5757"/>
<path fill-rule="evenodd" clip-rule="evenodd" d="M11.4697 6.21967C11.7626 5.92678 12.2374 5.92678 12.5303 6.21967L17.7803 11.4697C18.0732 11.7626 18.0732 12.2374 17.7803 12.5303C17.4874 12.8232 17.0126 12.8232 16.7197 12.5303L12 7.81066L7.28033 12.5303C6.98744 12.8232 6.51256 12.8232 6.21967 12.5303C5.92678 12.2374 5.92678 11.7626 6.21967 11.4697L11.4697 6.21967Z" fill="#EB5757"/>
</svg>
