<svg width="41" height="37" viewBox="0 0 41 37" fill="none" xmlns="http://www.w3.org/2000/svg">
<path fill-rule="evenodd" clip-rule="evenodd" d="M2.85906 2.85531V34.1447H10.9598V25.6978C10.9598 24.1553 11.3482 22.8609 12.1551 21.8985C12.9669 20.9302 14.0655 20.4614 15.1641 20.3154C17.2789 20.0345 19.0675 20.5614 21.2734 22.0939C21.2734 22.0939 21.2734 22.0939 24.1506 24.0096L27.2966 26.1081C28.0224 26.5811 28.7768 27.0728 29.5398 27.571C33.4883 30.1494 37.7409 32.9499 39.1941 34.0968C39.7508 34.5361 39.976 35.284 39.7098 35.9633C39.4541 36.6155 38.8281 37 38.1712 37H20.6091C19.688 37 18.9413 36.2543 18.9413 35.3344L18.9078 23.9452C17.8285 23.3146 16.7794 22.8863 15.7746 23.0198C15.2203 23.0934 14.6876 23.3255 14.3472 23.7315C14.0856 24.0435 13.8188 24.6228 13.8188 25.6978V35.3344C13.8188 36.2543 13.0721 37 12.151 37H1.66779C0.746698 37 -2.80676e-06 36.2543 -2.80676e-06 35.3344V1.66559C-2.80676e-06 0.745712 0.746692 0 1.66779 0H14.9111C15.6443 0 16.2886 0.515899 16.4317 1.25159C16.8381 3.34153 18.0859 6.45405 19.2913 9.00358C20.0013 8.52196 20.6978 7.66284 21.385 6.43745C22.332 4.74863 23.0417 2.73341 23.6318 1.05763L23.6628 0.969563C23.8743 0.368981 24.4379 0 25.0337 0H38.3531C39.5335 0 40.3571 1.19867 39.8959 2.30707C39.7826 2.57927 39.6511 2.90682 39.5026 3.27703C39.0207 4.47782 38.3588 6.1273 37.5527 7.79169C36.5025 9.96015 35.123 12.3428 33.3915 13.9989C28.6771 18.5082 20.6602 17.7479 17.3226 11.4982L17.3144 11.483L17.3067 11.4675C16.0872 9.04456 14.586 5.58045 13.8697 2.85531H2.85906ZM20.7619 11.4939C23.4743 14.7267 28.3388 14.8781 31.414 11.9368C32.766 10.6436 33.9666 8.63868 34.9789 6.54846C35.6201 5.22438 36.1517 3.94217 36.5906 2.85531H26.0283C25.4875 4.37015 24.7882 6.21221 23.8795 7.83261C23.1211 9.18517 22.1328 10.6223 20.7619 11.4939ZM21.8169 25.9252C22.0451 26.0756 22.2676 26.2349 22.5151 26.3972C23.4577 27.0155 24.5634 27.7362 25.7403 28.5033C26.4653 28.9759 27.2175 29.4661 27.9751 29.9608C30.2281 31.432 32.5074 32.9291 34.3088 34.1447H21.8169V25.9252Z" fill="none"/>
</svg>
