<svg width="184" height="162" viewBox="0 0 184 162" fill="none" xmlns="http://www.w3.org/2000/svg">
<path d="M0 132.053C1.05064 131.749 2.4054 131.473 4.0643 131.224C5.7232 130.948 7.46505 130.81 9.28984 130.81C11.1423 130.81 12.6768 131.059 13.8933 131.556C15.1375 132.025 16.119 132.702 16.8378 133.586C17.5567 134.47 18.0682 135.519 18.3723 136.734C18.6764 137.949 18.8285 139.303 18.8285 140.794V153.098H12.6491V141.54C12.6491 139.551 12.3864 138.143 11.8611 137.314C11.3358 136.486 10.3543 136.071 8.91659 136.071C8.47421 136.071 8.00419 136.099 7.50652 136.154C7.00885 136.182 6.56648 136.223 6.1794 136.279V153.098H0V132.053Z" fill="white"/>
<path d="M30.6012 153.098H24.4218V131.307H30.6012V153.098Z" fill="white"/>
<path d="M35.3731 142.203C35.3731 140.628 35.6219 139.151 36.1196 137.77C36.6449 136.361 37.3914 135.146 38.3591 134.124C39.3268 133.075 40.5019 132.246 41.8843 131.639C43.2667 131.031 44.8427 130.727 46.6122 130.727C47.7734 130.727 48.8378 130.838 49.8055 131.059C50.7732 131.252 51.7133 131.542 52.6257 131.929L51.34 136.858C50.7594 136.638 50.1235 136.444 49.4323 136.279C48.7411 136.113 47.9669 136.03 47.1098 136.03C45.285 136.03 43.9164 136.596 43.004 137.728C42.1193 138.861 41.6769 140.352 41.6769 142.203C41.6769 144.163 42.0917 145.682 42.9211 146.76C43.7782 147.837 45.2574 148.375 47.3587 148.375C48.1052 148.375 48.907 148.306 49.7641 148.168C50.6212 148.03 51.4091 147.809 52.128 147.505L52.9989 152.559C52.2801 152.863 51.3815 153.126 50.3032 153.347C49.2249 153.567 48.036 153.678 46.7366 153.678C44.7459 153.678 43.0317 153.388 41.594 152.808C40.1563 152.2 38.9674 151.386 38.0274 150.364C37.115 149.342 36.4376 148.14 35.9952 146.76C35.5805 145.351 35.3731 143.832 35.3731 142.203Z" fill="white"/>
<path d="M63.3256 139.178C63.9338 138.516 64.5559 137.825 65.1918 137.107C65.8554 136.389 66.4913 135.685 67.0996 134.994C67.7078 134.276 68.2746 133.6 68.7999 132.964C69.3529 132.329 69.8229 131.777 70.21 131.307H77.5506C76.0853 132.992 74.6476 134.608 73.2375 136.154C71.8551 137.673 70.3344 139.247 68.6755 140.877C69.505 141.623 70.3621 142.52 71.2468 143.57C72.1316 144.592 72.9887 145.655 73.8181 146.76C74.6476 147.864 75.4079 148.969 76.0991 150.074C76.7903 151.178 77.3709 152.187 77.8409 153.098H70.7491C70.3068 152.38 69.7953 151.593 69.2147 150.737C68.6617 149.853 68.0673 148.983 67.4313 148.127C66.7954 147.243 66.118 146.401 65.3992 145.6C64.708 144.799 64.0168 144.122 63.3256 143.57V153.098H57.1462V121.945L63.3256 120.95V139.178Z" fill="white"/>
<path d="M78.6276 142.368C78.6276 140.435 78.9179 138.75 79.4985 137.314C80.1068 135.85 80.8948 134.635 81.8625 133.669C82.8302 132.702 83.9361 131.97 85.1803 131.473C86.4521 130.976 87.7516 130.727 89.0787 130.727C92.1753 130.727 94.6222 131.68 96.4193 133.586C98.2165 135.464 99.115 138.239 99.115 141.913C99.115 142.272 99.1012 142.672 99.0736 143.114C99.0459 143.528 99.0183 143.901 98.9906 144.233H84.9729C85.1112 145.503 85.7056 146.511 86.7562 147.257C87.8069 148.002 89.2169 148.375 90.9864 148.375C92.12 148.375 93.2259 148.279 94.3042 148.085C95.4102 147.864 96.3087 147.602 96.9999 147.298L97.8294 152.311C97.4976 152.477 97.0552 152.642 96.5023 152.808C95.9493 152.974 95.3272 153.112 94.636 153.222C93.9724 153.36 93.2536 153.471 92.4794 153.554C91.7053 153.636 90.9311 153.678 90.157 153.678C88.1939 153.678 86.4797 153.388 85.0144 152.808C83.5767 152.228 82.374 151.441 81.4063 150.447C80.4662 149.425 79.7612 148.223 79.2912 146.842C78.8488 145.462 78.6276 143.97 78.6276 142.368ZM93.143 140.007C93.1153 139.482 93.0186 138.971 92.8527 138.474C92.7144 137.977 92.4794 137.535 92.1476 137.148C91.8435 136.762 91.4426 136.444 90.945 136.196C90.4749 135.947 89.8805 135.823 89.1616 135.823C88.4704 135.823 87.876 135.947 87.3783 136.196C86.8806 136.417 86.4659 136.72 86.1341 137.107C85.8024 137.494 85.5397 137.949 85.3462 138.474C85.1803 138.971 85.0559 139.482 84.9729 140.007H93.143Z" fill="white"/>
<path d="M112.593 153.512C110.796 153.485 109.33 153.291 108.197 152.932C107.091 152.573 106.206 152.076 105.543 151.441C104.907 150.778 104.464 149.991 104.215 149.08C103.994 148.14 103.884 147.091 103.884 145.931V121.945L110.063 120.95V144.688C110.063 145.241 110.105 145.738 110.188 146.18C110.27 146.621 110.423 146.994 110.644 147.298C110.893 147.602 111.238 147.851 111.681 148.044C112.123 148.237 112.717 148.361 113.464 148.417L112.593 153.512Z" fill="white"/>
<path d="M30.0621 127.703C30.8086 127.04 31.1819 126.142 31.1819 125.01C31.1819 123.878 30.8086 122.994 30.0621 122.359C29.3433 121.696 28.4862 121.364 27.4908 121.364C26.4955 121.364 25.6246 121.696 24.8781 122.359C24.1592 122.994 23.7998 123.878 23.7998 125.01C23.7998 126.142 24.1592 127.04 24.8781 127.703C25.6246 128.338 26.4955 128.655 27.4908 128.655C28.4862 128.655 29.3433 128.338 30.0621 127.703Z" fill="white"/>
<path d="M132.4 143.632C132.4 141.778 131.984 140.301 131.15 139.2C130.317 138.072 129.08 137.508 127.439 137.508C126.902 137.508 126.404 137.535 125.947 137.588C125.49 137.615 125.113 137.655 124.818 137.709V148.547C125.194 148.789 125.678 148.99 126.27 149.152C126.888 149.313 127.507 149.393 128.125 149.393C130.975 149.393 132.4 147.473 132.4 143.632ZM138.531 143.471C138.531 145.109 138.33 146.6 137.926 147.943C137.523 149.286 136.931 150.441 136.152 151.408C135.372 152.375 134.404 153.127 133.247 153.664C132.091 154.201 130.76 154.47 129.254 154.47C128.421 154.47 127.641 154.389 126.915 154.228C126.189 154.067 125.49 153.839 124.818 153.543V161.521H118.808V133.6C119.346 133.438 119.964 133.291 120.663 133.156C121.362 132.995 122.088 132.861 122.841 132.753C123.621 132.646 124.401 132.565 125.181 132.512C125.987 132.431 126.754 132.391 127.48 132.391C129.228 132.391 130.787 132.659 132.158 133.197C133.53 133.707 134.686 134.446 135.627 135.413C136.568 136.353 137.281 137.508 137.765 138.878C138.276 140.247 138.531 141.778 138.531 143.471Z" fill="white"/>
<path d="M151.257 149.877C151.849 149.877 152.413 149.863 152.951 149.836C153.489 149.81 153.919 149.769 154.242 149.716V145.163C154 145.109 153.637 145.055 153.153 145.002C152.669 144.948 152.225 144.921 151.822 144.921C151.257 144.921 150.719 144.961 150.209 145.042C149.725 145.096 149.294 145.217 148.918 145.405C148.541 145.593 148.246 145.848 148.031 146.17C147.815 146.492 147.708 146.895 147.708 147.379C147.708 148.319 148.017 148.977 148.636 149.353C149.281 149.702 150.155 149.877 151.257 149.877ZM150.773 132.31C152.548 132.31 154.027 132.512 155.21 132.915C156.393 133.318 157.334 133.895 158.033 134.647C158.759 135.399 159.27 136.312 159.566 137.387C159.862 138.461 160.01 139.657 160.01 140.973V153.463C159.149 153.651 157.953 153.865 156.42 154.107C154.887 154.376 153.032 154.51 150.854 154.51C149.483 154.51 148.232 154.389 147.103 154.147C146 153.906 145.046 153.516 144.239 152.979C143.432 152.415 142.814 151.69 142.384 150.803C141.954 149.917 141.738 148.829 141.738 147.54C141.738 146.304 141.98 145.257 142.464 144.397C142.975 143.538 143.648 142.853 144.481 142.343C145.315 141.832 146.269 141.47 147.345 141.255C148.42 141.013 149.536 140.892 150.693 140.892C151.472 140.892 152.158 140.932 152.75 141.013C153.368 141.067 153.866 141.147 154.242 141.255V140.691C154.242 139.67 153.933 138.851 153.314 138.233C152.696 137.615 151.62 137.306 150.088 137.306C149.066 137.306 148.057 137.387 147.063 137.548C146.068 137.682 145.207 137.884 144.481 138.152L143.715 133.318C144.064 133.21 144.495 133.103 145.005 132.995C145.543 132.861 146.121 132.753 146.74 132.673C147.358 132.565 148.004 132.485 148.676 132.431C149.375 132.351 150.074 132.31 150.773 132.31Z" fill="white"/>
<path d="M183.768 132.874C182.558 136.957 181.294 140.785 179.977 144.357C178.659 147.929 177.22 151.394 175.661 154.752C175.096 155.961 174.532 156.981 173.967 157.814C173.402 158.673 172.784 159.372 172.112 159.909C171.439 160.473 170.673 160.876 169.812 161.118C168.979 161.386 167.997 161.521 166.868 161.521C165.927 161.521 165.053 161.427 164.246 161.239C163.467 161.077 162.821 160.889 162.31 160.674L163.359 155.88C163.977 156.095 164.529 156.243 165.013 156.323C165.497 156.404 166.008 156.444 166.545 156.444C167.621 156.444 168.441 156.149 169.006 155.558C169.597 154.994 170.095 154.201 170.498 153.181C169.127 150.495 167.755 147.486 166.384 144.156C165.013 140.798 163.722 137.038 162.512 132.874H168.885C169.154 133.922 169.463 135.063 169.812 136.299C170.189 137.508 170.579 138.743 170.982 140.006C171.385 141.241 171.789 142.45 172.192 143.632C172.622 144.814 173.026 145.888 173.402 146.855C173.752 145.888 174.115 144.814 174.491 143.632C174.868 142.45 175.231 141.241 175.58 140.006C175.957 138.743 176.306 137.508 176.629 136.299C176.978 135.063 177.288 133.922 177.557 132.874H183.768Z" fill="white"/>
<path fill-rule="evenodd" clip-rule="evenodd" d="M44.6593 7.87084V94.1222H66.9895V70.8376C66.9895 66.5858 68.0601 63.0176 70.2844 60.3646C72.5223 57.6955 75.5506 56.4031 78.5791 56.0008C84.4085 55.2266 89.3389 56.6788 95.4196 60.9033C95.4196 60.9033 95.4196 60.9033 103.351 66.184L112.023 71.9687C114.024 73.2727 116.103 74.6281 118.207 76.0014C129.091 83.109 140.814 90.8287 144.819 93.99C146.354 95.2012 146.975 97.2627 146.241 99.1352C145.536 100.933 143.81 101.993 142 101.993H93.5886C91.0495 101.993 88.9912 99.9374 88.9912 97.4017L88.8987 66.0064C85.9235 64.2684 83.0317 63.0877 80.2619 63.4556C78.734 63.6586 77.2656 64.2982 76.327 65.4176C75.6061 66.2774 74.8707 67.8744 74.8707 70.8376V97.4017C74.8707 99.9374 72.8124 101.993 70.2733 101.993H41.3755C38.8365 101.993 36.7781 99.9374 36.7781 97.4017V4.59133C36.7781 2.05561 38.8364 0 41.3755 0H77.8815C79.9026 0 81.6788 1.42211 82.0732 3.45009C83.1936 9.21116 86.6332 17.791 89.9558 24.819C91.913 23.4914 93.8332 21.1231 95.7274 17.7453C98.3379 13.0899 100.294 7.53482 101.921 2.91544L102.006 2.67267C102.589 1.01712 104.143 0 105.785 0H142.501C145.755 0 148.025 3.30422 146.754 6.35959C146.442 7.10992 146.079 8.01286 145.67 9.03335C144.341 12.3434 142.517 16.8903 140.295 21.4783C137.4 27.4558 133.597 34.0238 128.824 38.5889C115.829 51.0191 93.7293 48.9234 84.529 31.6956L84.5066 31.6536L84.4852 31.6111C81.1235 24.9319 76.9855 15.3829 75.011 7.87084H44.6593ZM94.0096 31.6838C101.487 40.5952 114.896 41.0125 123.373 32.9046C127.1 29.3399 130.409 23.8131 133.2 18.0513C134.967 14.4014 136.433 10.8669 137.643 7.87084H108.527C107.036 12.0466 105.109 17.1244 102.604 21.5911C100.513 25.3195 97.7888 29.281 94.0096 31.6838ZM96.9178 71.4646C97.5469 71.8792 98.1603 72.3182 98.8426 72.7658C101.441 74.4702 104.489 76.4567 107.733 78.5712C109.732 79.8739 111.805 81.2253 113.893 82.5891C120.104 86.6446 126.387 90.7712 131.353 94.1222H96.9178V71.4646Z" fill="white"/>
<path d="M96.9177 71.4642L88.8982 66.0076L88.9795 93.1148H96.9177V71.4642Z" fill="url(#paint0_linear_5182_102911)" fill-opacity="0.4"/>
<path d="M94.0096 31.6833C92.4233 29.9231 90.3964 25.9626 89.9557 24.8185C93.2693 22.847 96.389 16.8975 97.5346 14.1692L104.673 17.5136C100.09 27.23 95.8602 30.5392 94.0096 31.6833Z" fill="url(#paint1_linear_5182_102911)" fill-opacity="0.4"/>
<defs>
<linearGradient id="paint0_linear_5182_102911" x1="92.952" y1="63.8073" x2="92.952" y2="86.25" gradientUnits="userSpaceOnUse">
<stop stop-color="#323232" stop-opacity="0.83"/>
<stop offset="1" stop-color="#1C1C1C" stop-opacity="0"/>
</linearGradient>
<linearGradient id="paint1_linear_5182_102911" x1="87.0476" y1="32.6514" x2="98.2228" y2="19.6993" gradientUnits="userSpaceOnUse">
<stop stop-color="#323232" stop-opacity="0.83"/>
<stop offset="0.826904" stop-color="#222222" stop-opacity="0.08"/>
<stop offset="1" stop-color="#1C1C1C" stop-opacity="0"/>
</linearGradient>
</defs>
</svg>
