<svg width="24" height="25" viewBox="0 0 24 25" fill="none" xmlns="http://www.w3.org/2000/svg">
<path d="M12 13.6289C12.5523 13.6289 13 13.1812 13 12.6289C13 12.0766 12.5523 11.6289 12 11.6289C11.4477 11.6289 11 12.0766 11 12.6289C11 13.1812 11.4477 13.6289 12 13.6289Z" stroke="black" stroke-width="2" stroke-linecap="round" stroke-linejoin="round"/>
<path d="M12 6.62891C12.5523 6.62891 13 6.18119 13 5.62891C13 5.07662 12.5523 4.62891 12 4.62891C11.4477 4.62891 11 5.07662 11 5.62891C11 6.18119 11.4477 6.62891 12 6.62891Z" stroke="black" stroke-width="2" stroke-linecap="round" stroke-linejoin="round"/>
<path d="M12 20.6289C12.5523 20.6289 13 20.1812 13 19.6289C13 19.0766 12.5523 18.6289 12 18.6289C11.4477 18.6289 11 19.0766 11 19.6289C11 20.1812 11.4477 20.6289 12 20.6289Z" stroke="black" stroke-width="2" stroke-linecap="round" stroke-linejoin="round"/>
</svg>
