<svg width="21" height="22" viewBox="0 0 21 22" fill="none" xmlns="http://www.w3.org/2000/svg">
<path d="M18.9 15.7143H21V17.8095H0V15.7143H2.1V8.38095C2.1 6.15819 2.985 4.02646 4.5603 2.45472C6.13561 0.882991 8.27218 0 10.5 0C12.7278 0 14.8644 0.882991 16.4397 2.45472C18.015 4.02646 18.9 6.15819 18.9 8.38095V15.7143ZM16.8 15.7143V8.38095C16.8 6.71388 16.1363 5.11508 14.9548 3.93628C13.7733 2.75748 12.1709 2.09524 10.5 2.09524C8.82914 2.09524 7.22671 2.75748 6.04523 3.93628C4.86375 5.11508 4.2 6.71388 4.2 8.38095V15.7143H16.8ZM7.35 19.9048H13.65V22H7.35V19.9048Z" fill="white"/>
</svg>
